# xmcd
#
# Track frame offsets: 
#        150
#        28784
#        49350
#        73913
#        96183
#        117337
#        137454
#        161100
#        182850
#        205696
#
# Disc length: 3108 seconds
#
# Revision: 3
# Processed by: cddbd v1.5.2PL0 Copyright (c) Steve Scherf et al.
# Submitted via: ExactAudioCopy v1.0b1
#
DISCID=930c220a
DTITLE=林忆莲 - Love,Sandy
DYEAR=1995
DGENRE=Pop
TTITLE0=伤痕
TTITLE1=这些那些
TTITLE2=听说爱情回来过
TTITLE3=知难不退
TTITLE4=有所谓
TTITLE5=为你我受冷风吹
TTITLE6=爱不了多久
TTITLE7=不爱的理由
TTITLE8=影子情人
TTITLE9=伤痕(演奏版)
EXTD=
EXTT0=
EXTT1=
EXTT2=
EXTT3=
EXTT4=
EXTT5=
EXTT6=
EXTT7=
EXTT8=
EXTT9=
PLAYORDER=
